<?xml version="1.0" standalone="no"?>
<!DOCTYPE svg PUBLIC "-//W3C//DTD SVG 20010904//EN"
 "http://www.w3.org/TR/2001/REC-SVG-20010904/DTD/svg10.dtd">
<svg version="1.0" xmlns="http://www.w3.org/2000/svg"
 width="2602.000000pt" height="2602.000000pt" viewBox="0 0 2602.000000 2602.000000"
 preserveAspectRatio="xMidYMid meet">
<metadata>
Created by potrace 1.14, written by Peter Selinger 2001-2017
</metadata>
<g transform="translate(0.000000,2602.000000) scale(0.100000,-0.100000)"
fill="#000000" stroke="none">
<path d="M4706 18023 c-1 -1 -50 -4 -109 -7 -59 -3 -126 -8 -150 -10 -23 -3
-69 -8 -102 -11 -33 -3 -67 -8 -75 -10 -8 -2 -40 -6 -70 -10 -93 -9 -326 -54
-455 -87 -44 -11 -89 -22 -100 -24 -68 -12 -355 -106 -515 -167 -164 -62 -452
-196 -590 -274 -490 -277 -854 -560 -1213 -944 -115 -122 -143 -154 -230 -261
-268 -333 -489 -688 -652 -1048 -31 -69 -60 -134 -65 -145 -29 -61 -157 -416
-166 -460 -1 -5 -11 -41 -23 -79 -11 -37 -23 -78 -25 -90 -2 -11 -12 -50 -21
-86 -17 -64 -20 -79 -30 -121 -2 -11 -6 -28 -9 -37 -3 -9 -7 -33 -10 -52 -3
-19 -8 -46 -11 -60 -11 -54 -25 -137 -30 -185 -4 -27 -8 -57 -10 -65 -2 -8 -7
-46 -11 -85 -3 -38 -8 -79 -10 -90 -11 -55 -19 -277 -18 -500 0 -263 7 -392
30 -565 3 -25 7 -58 9 -75 6 -61 16 -130 20 -145 2 -8 7 -31 10 -50 3 -19 12
-66 20 -105 8 -38 17 -81 19 -95 14 -68 47 -203 66 -265 11 -38 22 -79 25 -89
7 -30 76 -237 90 -271 7 -16 27 -68 45 -115 118 -311 300 -656 511 -965 72
-107 267 -366 288 -385 3 -3 35 -39 70 -80 66 -76 367 -381 431 -435 20 -16
65 -55 100 -85 369 -316 871 -620 1315 -795 66 -26 140 -55 165 -65 88 -35
454 -144 550 -164 14 -3 34 -7 45 -10 62 -14 226 -46 260 -50 22 -3 49 -7 60
-10 11 -2 43 -7 70 -10 28 -4 61 -9 75 -11 14 -3 50 -7 80 -10 30 -3 73 -7 95
-9 208 -23 611 -23 865 -1 91 7 176 17 190 20 8 2 40 7 70 10 30 3 62 8 70 10
8 2 35 7 60 10 25 3 90 15 145 26 55 12 111 23 125 26 25 4 109 26 250 64 338
92 771 274 1100 464 188 108 458 289 570 382 8 7 71 58 140 115 158 129 466
436 597 594 224 271 377 492 538 781 57 100 195 376 195 388 0 2 13 32 29 67
52 114 182 478 196 549 2 9 12 47 23 85 28 97 62 240 77 322 3 15 7 38 10 52
14 68 39 238 50 335 4 28 8 64 10 82 28 205 27 734 -1 998 -7 69 -34 270 -40
297 -4 21 -17 93 -30 173 -21 119 -110 445 -171 625 -97 287 -281 677 -444
942 -68 110 -222 341 -239 358 -3 3 -25 32 -49 65 -25 33 -86 110 -137 170
-350 419 -749 762 -1239 1064 -300 185 -738 379 -1095 486 -81 24 -298 82
-337 89 -10 2 -63 13 -118 25 -118 25 -331 57 -430 66 -38 3 -81 8 -95 10 -75
12 -624 28 -634 18z"/>
<path d="M23025 16610 c-27 -4 -72 -10 -100 -14 -51 -6 -63 -8 -152 -27 -29
-5 -54 -10 -55 -9 -8 3 -252 -87 -303 -112 -473 -236 -712 -741 -589 -1243 49
-199 136 -346 299 -510 94 -94 181 -154 331 -229 142 -70 414 -168 564 -201 8
-2 105 -27 215 -55 110 -29 209 -54 220 -56 31 -8 36 -9 100 -27 275 -78 353
-111 456 -191 127 -99 173 -272 118 -445 -51 -159 -213 -306 -404 -367 -122
-39 -194 -48 -370 -48 -237 -1 -376 34 -525 129 -184 119 -301 309 -363 590
l-13 60 -39 -1 c-41 -1 -167 -11 -240 -19 -34 -4 -120 -13 -280 -30 -22 -2
-76 -7 -120 -11 -44 -5 -83 -9 -87 -10 -5 -1 -16 -2 -27 -3 -17 -1 -17 -5 -6
-73 7 -40 15 -86 18 -103 27 -165 109 -396 194 -545 65 -113 178 -252 279
-340 47 -41 142 -110 153 -110 5 0 11 -3 13 -8 5 -12 134 -77 222 -112 91 -36
274 -85 356 -95 30 -4 58 -9 61 -11 29 -18 545 -26 699 -12 316 30 594 118
800 252 116 77 240 200 322 322 87 129 175 347 193 475 3 24 8 61 11 81 7 48
7 206 0 283 -41 446 -266 764 -680 961 -104 49 -366 143 -501 180 -93 25 -365
94 -410 104 -170 36 -424 120 -550 180 -169 81 -238 170 -242 315 -1 67 2 88
23 130 38 79 88 125 189 177 135 69 291 97 510 93 156 -3 189 -7 290 -37 216
-62 343 -204 409 -453 l23 -90 104 1 c104 1 637 18 716 23 7 1 10 14 8 34 -2
17 -6 59 -9 92 -29 286 -148 537 -348 735 -50 49 -94 90 -99 90 -4 0 -14 6
-21 13 -26 25 -113 78 -192 116 -157 76 -354 129 -576 155 -119 14 -507 17
-595 6z"/>
<path d="M10387 14508 c1 -1118 2 -2041 2 -2052 1 -18 34 -18 1074 -13 1031 6
1137 7 1292 22 221 20 388 73 555 174 91 56 239 201 302 296 149 224 221 471
213 725 -3 106 -9 142 -37 250 -20 75 -114 280 -129 280 -4 0 -10 9 -14 20 -3
10 -43 57 -88 103 -80 83 -206 173 -297 214 -25 11 -62 28 -83 37 -21 10 -45
19 -55 21 -69 14 -68 18 28 75 434 257 600 814 378 1269 -108 221 -293 398
-517 496 -121 52 -224 75 -455 102 -22 3 -520 7 -1106 10 l-1065 4 2 -2033z
m2018 1327 c277 -42 419 -208 409 -480 -8 -240 -161 -391 -444 -440 -19 -3
-286 -9 -592 -12 l-558 -5 0 477 0 477 573 -6 c314 -3 590 -8 612 -11z m-70
-1639 c22 -3 66 -8 98 -11 188 -19 303 -67 402 -170 93 -96 136 -225 129 -384
-4 -107 -23 -177 -66 -248 -72 -119 -217 -211 -363 -229 -16 -2 -48 -6 -70
-10 -22 -3 -311 -8 -642 -11 l-603 -5 0 542 0 542 538 -5 c295 -3 555 -8 577
-11z"/>
<path d="M14525 14493 l0 -2048 1561 -3 1561 -2 1 345 0 345 -1146 2 -1147 3
0 555 0 555 1030 3 1030 2 0 343 0 342 -1030 5 -1030 5 0 450 0 450 1108 3
1107 2 0 345 0 345 -1523 0 -1522 0 0 -2047z"/>
<path d="M18369 16498 c0 -17 -1 -4018 0 -4040 1 -17 77 -18 1444 -18 l1444 0
0 345 0 345 -1028 0 c-973 0 -1029 1 -1030 18 0 9 -1 770 -1 1690 l-1 1672
-414 0 c-323 0 -413 -3 -414 -12z"/>
<path d="M15866 12035 c-73 -25 -100 -44 -139 -93 -81 -105 -60 -253 47 -334
48 -36 69 -43 340 -117 153 -43 203 -106 162 -205 -27 -65 -103 -106 -206
-112 -153 -8 -264 61 -295 184 l-12 47 -62 3 c-58 3 -61 2 -61 -21 0 -41 31
-130 61 -173 35 -51 75 -85 131 -112 63 -31 100 -37 228 -36 108 0 119 2 180
31 77 36 120 76 150 140 62 131 10 275 -124 341 -25 13 -113 40 -195 62 -219
56 -257 78 -265 155 -6 52 23 96 87 131 42 23 169 28 231 9 59 -17 83 -36 113
-85 22 -36 23 -39 23 -65 0 -12 14 -15 65 -15 l65 0 -6 38 c-14 91 -72 170
-154 210 -100 48 -255 55 -364 17z"/>
<path d="M21274 12041 c-168 -51 -276 -177 -310 -361 -11 -64 -6 -206 10 -271
62 -243 223 -362 471 -346 115 7 187 37 255 106 52 52 98 131 113 192 6 24 4
26 -58 41 l-65 15 -12 -41 c-39 -133 -162 -215 -302 -202 -172 16 -272 143
-281 358 -8 196 56 334 184 391 67 30 200 30 256 -1 60 -33 80 -53 110 -113
15 -30 29 -56 30 -57 6 -6 116 21 121 30 9 15 -42 114 -82 157 -43 49 -102 85
-166 105 -67 20 -202 18 -274 -3z"/>
<path d="M10555 11560 l0 -490 67 0 66 0 0 490 -1 490 -66 0 -66 0 0 -490z"/>
<path d="M10820 12041 c0 -5 33 -94 73 -197 41 -104 113 -290 161 -414 48
-124 100 -255 114 -292 l27 -68 68 0 c47 0 67 4 67 13 1 6 9 30 20 52 11 22
19 45 20 51 0 5 9 29 20 52 11 22 20 47 20 55 0 7 3 17 7 20 3 4 70 170 148
369 l143 363 -65 3 c-36 2 -67 1 -69 -1 -2 -2 -14 -32 -27 -68 -13 -35 -68
-181 -122 -324 -53 -143 -112 -305 -130 -360 -19 -55 -36 -93 -39 -85 -2 8
-14 42 -26 75 -12 33 -24 67 -26 75 -2 8 -57 165 -124 349 -66 184 -120 336
-120 338 0 2 -31 3 -70 3 -38 0 -70 -4 -70 -9z"/>
<path d="M11830 11560 l0 -490 68 0 67 0 -1 225 -1 225 228 0 228 0 -1 55 -1
55 -226 2 -226 3 -1 153 -1 152 264 0 263 0 0 55 0 55 -330 0 -330 0 0 -490z"/>
<path d="M14989 12018 c0 -18 -1 -99 -1 -179 l0 -145 -36 33 c-74 68 -185 81
-287 33 -125 -58 -192 -231 -163 -418 26 -164 140 -276 287 -281 72 -2 122 17
173 66 l38 37 -4 -47 -4 -47 59 0 59 0 0 490 0 490 -60 0 -60 0 -1 -32z m-99
-363 c68 -35 100 -103 105 -219 6 -161 -51 -249 -169 -261 -76 -8 -140 33
-181 115 -40 79 -22 272 31 331 49 55 145 70 214 34z"/>
<path d="M18550 11990 l0 -60 60 0 60 0 0 60 0 60 -60 0 -60 0 0 -60z"/>
<path d="M20285 11560 l0 -490 61 0 62 0 0 490 0 490 -61 0 -62 0 0 -490z"/>
<path d="M23558 11991 l-58 -36 0 -87 0 -88 -45 0 -45 0 0 -55 0 -55 45 0 45
0 1 -237 c1 -231 1 -252 13 -299 11 -43 63 -68 143 -71 94 -3 102 0 97 40 -10
74 -11 75 -48 70 -21 -3 -44 1 -58 11 l-24 16 -1 235 -1 235 59 0 c64 0 61 -3
61 65 0 14 0 30 -1 35 -1 6 -27 10 -60 10 l-59 0 1 120 c0 66 -2 122 -4 124
-2 2 -30 -13 -61 -33z"/>
<path d="M13173 11770 c-74 -24 -121 -64 -150 -127 -26 -57 -25 -82 4 -81 10
0 34 -2 53 -6 34 -7 36 -5 55 36 12 24 35 50 54 62 65 38 208 27 251 -19 29
-31 40 -109 16 -118 -20 -8 -170 -34 -246 -43 -128 -15 -212 -81 -227 -178 -3
-17 -5 -33 -6 -36 -5 -21 19 -91 40 -119 75 -98 278 -108 412 -19 24 16 45 28
46 26 2 -2 7 -19 12 -38 l9 -35 67 -3 67 -3 -11 28 c-20 51 -21 67 -25 301 -3
202 -6 238 -22 275 -36 81 -121 119 -262 116 -48 -1 -107 -9 -137 -19z m293
-412 c-7 -75 -19 -101 -65 -137 -76 -60 -219 -65 -271 -9 -12 13 -20 36 -20
55 0 62 51 89 195 108 57 7 96 14 130 24 17 5 31 10 33 10 2 1 1 -23 -2 -51z"/>
<path d="M14020 11778 c-39 -11 -87 -42 -112 -72 -17 -21 -18 -20 -18 27 l0
47 -55 0 c-37 0 -55 -4 -56 -12 -1 -19 -1 -671 0 -685 1 -9 20 -13 61 -13 l60
0 1 198 c0 235 4 276 28 322 61 119 264 114 292 -8 4 -15 7 -136 8 -269 l1
-243 63 0 63 0 -1 263 c-1 295 -8 339 -61 392 -57 57 -178 81 -274 53z"/>
<path d="M17534 11776 c-17 -8 -43 -29 -57 -47 -28 -36 -32 -31 -27 29 1 20
-3 22 -57 22 l-58 0 0 -355 0 -355 62 0 63 0 1 218 c1 246 2 261 31 321 31 64
93 87 152 56 37 -19 35 -20 50 18 31 73 30 76 -8 92 -44 18 -111 19 -152 1z"/>
<path d="M17965 11781 c-124 -31 -211 -160 -220 -328 -7 -119 22 -211 90 -291
50 -57 105 -84 186 -90 78 -5 129 9 182 50 41 32 40 33 37 -50 -5 -119 -79
-178 -212 -167 -72 5 -110 25 -136 70 -12 19 -29 35 -39 35 -10 0 -34 3 -54 6
l-36 6 7 -43 c11 -66 25 -93 65 -127 76 -62 244 -81 355 -39 72 27 134 90 156
159 14 45 17 109 20 431 l3 378 -57 -3 c-56 -3 -57 -4 -58 -33 -2 -47 -2 -47
-31 -19 -59 56 -163 78 -258 55z m191 -132 c19 -11 46 -41 61 -67 22 -38 28
-61 31 -134 7 -135 -28 -210 -113 -249 -50 -22 -120 -19 -166 7 -65 38 -99
113 -100 221 -2 113 35 190 110 230 54 28 124 25 177 -8z"/>
<path d="M19045 11781 c-157 -41 -238 -175 -230 -380 4 -124 36 -205 107 -271
65 -61 208 -86 312 -56 80 23 157 99 180 176 18 62 16 65 -51 74 -55 7 -59 5
-67 -37 -6 -34 -54 -88 -91 -102 -42 -16 -119 -13 -157 6 -72 37 -107 109
-109 229 -3 148 55 237 167 255 61 10 118 -9 153 -53 17 -20 31 -42 31 -49 0
-21 19 -25 74 -13 53 11 54 12 46 39 -34 120 -120 183 -255 187 -44 2 -93 0
-110 -5z"/>
<path d="M19704 11774 c-80 -24 -125 -58 -156 -118 -29 -57 -33 -92 -11 -93
10 0 36 -3 58 -7 39 -7 40 -7 60 36 25 53 68 79 142 84 114 8 181 -30 190
-108 l5 -47 -40 -10 c-22 -6 -89 -18 -148 -26 -130 -18 -194 -38 -235 -72 -48
-41 -68 -90 -66 -164 2 -55 7 -72 30 -102 44 -58 97 -81 194 -84 94 -2 170 18
228 63 20 15 37 25 39 23 2 -2 8 -20 13 -39 l9 -35 68 -3 c51 -2 66 0 60 9
-20 33 -30 143 -32 338 -2 184 -5 219 -21 255 -35 80 -121 118 -261 115 -47
-1 -104 -8 -126 -15z m283 -424 c-7 -67 -15 -85 -49 -116 -57 -52 -152 -75
-228 -54 -52 14 -80 45 -80 87 0 62 49 88 195 107 60 8 148 25 153 31 12 12
14 1 9 -55z"/>
<path d="M22133 11771 c-163 -56 -241 -225 -208 -446 24 -157 156 -264 327
-263 101 0 168 22 226 72 38 34 99 133 88 143 -4 4 -34 10 -88 18 -31 5 -39 2
-49 -17 -18 -35 -61 -79 -89 -90 -131 -53 -275 31 -292 169 l-3 28 264 3 263
2 -5 73 c-7 91 -10 103 -41 165 -29 58 -96 118 -159 144 -56 23 -167 23 -234
-1z m228 -125 c25 -17 48 -43 60 -69 36 -80 44 -77 -175 -77 l-193 0 2 23 c7
57 63 122 125 145 48 18 136 7 181 -22z"/>
<path d="M22960 11778 c-35 -10 -95 -49 -117 -78 -10 -12 -12 -7 -13 33 l0 48
-57 -3 -56 -3 0 -340 c1 -187 2 -346 2 -352 1 -9 20 -13 61 -13 l60 0 1 203
c1 232 3 264 23 311 39 92 200 123 271 52 29 -29 35 -84 35 -322 l0 -244 63 0
63 0 -2 278 c-2 304 -5 325 -64 382 -53 51 -180 74 -270 48z"/>
<path d="M24045 11779 c-11 -6 -35 -27 -52 -47 -32 -36 -33 -37 -34 -12 -1 14
-1 33 0 43 2 14 -6 17 -56 17 l-58 0 0 -355 0 -355 62 0 63 0 1 218 c1 241 2
259 29 319 28 64 88 86 156 58 20 -8 38 -14 39 -13 3 4 35 100 35 105 0 1 -16
10 -36 18 -42 17 -120 19 -149 4z"/>
<path d="M24472 11768 c-73 -27 -151 -106 -177 -178 -23 -63 -31 -237 -14
-292 35 -108 93 -176 185 -213 51 -21 72 -24 154 -21 61 2 109 9 133 20 56 25
117 85 143 141 23 49 23 50 4 57 -11 4 -40 10 -65 13 -37 4 -47 2 -52 -12 -13
-35 -59 -81 -93 -95 -91 -37 -211 -1 -260 79 -19 32 -40 109 -32 118 3 3 122
5 264 5 l258 0 0 44 c0 150 -62 265 -175 324 -68 36 -194 40 -273 10z m239
-123 c25 -16 48 -43 60 -68 36 -80 43 -77 -170 -77 -114 0 -192 4 -196 10 -11
18 32 97 67 123 48 37 76 45 141 42 43 -2 69 -10 98 -30z"/>
<path d="M16575 11508 c1 -257 3 -276 23 -321 35 -79 112 -125 211 -126 79 -1
127 17 182 69 l49 46 0 -53 0 -53 55 0 55 0 0 355 0 355 -60 0 -60 0 0 -37
c-5 -469 -5 -469 -63 -524 -62 -59 -183 -60 -234 -1 -31 36 -33 59 -33 323 l0
239 -63 0 -63 0 1 -272z"/>
<path d="M18550 11425 l0 -355 60 0 60 0 0 355 0 355 -60 0 -60 0 0 -355z"/>
</g>
</svg>
